<svg xmlns="http://www.w3.org/2000/svg" viewBox="0 0 510.08 294.25"><defs><style>.a{fill:#333;}</style></defs><path class="a" d="M495.71,88.21c42.83-4.61-24.35,193.5-24.35,193.5H30.77S1.61,148.15,31.86,102.76C149.64-74,319.77,107.12,495.71,88.21Z" transform="translate(-0.44 -0.23)"/><path class="a" d="M498,105.9c-.19-1.06-.33-2.12-.51-2.78-.08-.35-.14-.63-.18-.83l-.09-.28a4.21,4.21,0,0,0-.39.17c.24.57.43,1.24.64,1.81S497.84,105.29,498,105.9Z" transform="translate(-0.44 -0.23)"/><path class="a" d="M503.52,110.06c0-.52-.07-1.06-.11-1.58-.1.19-.21.22-.32.33C503.23,109.2,503.38,109.59,503.52,110.06Z" transform="translate(-0.44 -0.23)"/><path class="a" d="M496.83,102.18c-.71.31-1.38.94-2.1,1.29a2.57,2.57,0,0,1-2.43-.09,9.78,9.78,0,0,0-.33-1c-.06-.08-.1-.36-.13-.33s-.45.19,1-.7a12,12,0,0,0,2.41-1.67,7,7,0,0,0,1.44-1.29,4.81,4.81,0,0,0,.66-.78l.11-.19h0l0,0c.1-.22-.07.16-.07.19s0,0,0-.07c.15-.35,0-.08,0-.12l0-.08a1.56,1.56,0,0,0-.09.2,1.89,1.89,0,0,0-.11.46,5.87,5.87,0,0,0-.21,1.88,9.06,9.06,0,0,0,.12,3c1.05,9.74.29,2.7.52,4.88h0l0,0,0,0-.08.06-.12.12a.63.63,0,0,0-.17.21.33.33,0,0,0,0,.37.92.92,0,0,0,.43.28l.08,0,0,0h0c-.22-2-.43-4-.65-6,0-.09,0-.18,0-.28s-.06-.43-.09-.67a11.46,11.46,0,0,1,0-1.86,7.67,7.67,0,0,1,.12-1.56l.11-.43,0-.17a2,2,0,0,1,.12-.41c.12-.26,0,0,0,0s0,0-.09.14c-.36.56-1.95,2.55-5.89,4.64-.52.3-1,.58-1.58.83l-.82.35c-.2.09-.13,0-.12,0h.05l.41.09c.16,0,.31.26.48.39a2,2,0,0,1,.51.59c1.39,1.93,2.45,5.39,3.22,7.62s1.41,3.44,2.13,2a13.92,13.92,0,0,0,.94-4.11A33.5,33.5,0,0,0,496.83,102.18Z" transform="translate(-0.44 -0.23)"/><path class="a" d="M501.24,122.68a105.2,105.2,0,0,0,0-14.75c-1.14-1.35-2.31-3-3.14-1.59.76,3.26,1.23,6.25,1.68,8.91S500.68,120.29,501.24,122.68Z" transform="translate(-0.44 -0.23)"/><path class="a" d="M451.72,95.7c0-.26.31-.36,3.1.17l-3.1-.17c-.05.24.11.61-1.31.68,10.89.22,23.62-.08,35.94-1,1.58-.52,3.09-1.14,4.45-1.72-15.16,1.5-30.39,1.27-44.85.53s-28.18-2.35-40.58-3.55C422.65,93.78,434.78,94.7,451.72,95.7Z" transform="translate(-0.44 -0.23)"/><path class="a" d="M492.91,90.83l3-.29C493.18,90.41,492.91,90.57,492.91,90.83Z" transform="translate(-0.44 -0.23)"/><path class="a" d="M32.6,136.8a135.68,135.68,0,0,0-1,24.59c.33,8,1.09,15.78,2.13,23.61-1.26-16.63-1.3-33.48.68-48.39a92.54,92.54,0,0,1,4.71-20.09c.61-1.35,1.07-2.87,1.73-4.07.32-.61.63-1.22.94-1.83l.46-.92.67-1.08c1.82-2.88,3.46-5.76,5.2-8.39-2.15,2.91-4.12,6-6.2,9L39.67,113c-.62,1.42-1.31,2.77-1.91,4.22A92.22,92.22,0,0,0,32.6,136.8Z" transform="translate(-0.44 -0.23)"/><path class="a" d="M47.39,257.16c0-.35,0-.69,0-1l0-.48,0-.27-.13-.86c-.4-2.62-.8-5.18-1.19-7.7-.83-5-1.62-9.84-2.39-14.53C42,223,40.42,214.21,38.92,205.65c.95,8.74,2.12,17.47,3.45,26.17q1,6.52,2.12,13l1.15,6.49.6,3.23.22,1.15.11.42A9.27,9.27,0,0,0,47.39,257.16Z" transform="translate(-0.44 -0.23)"/><path class="a" d="M41.79,238.72c-2.82-20.11-5.88-37-8.1-53.72A373,373,0,0,0,41.79,238.72Z" transform="translate(-0.44 -0.23)"/><path class="a" d="M279.1,25.12c13.68,2.91,21.79,5,26.35,6.26,2.18.07,5.05.21,8.89.48L312,31.11c-13.71-3.56-27.76-7.32-42.21-10.92-6-1.2-11.75-2.23-16.66-2.84C261.9,19.86,270.58,22.51,279.1,25.12Z" transform="translate(-0.44 -0.23)"/><path class="a" d="M305.45,31.38c-18.62-.58,17.8,5.1,0,0Z" transform="translate(-0.44 -0.23)"/><path class="a" d="M212.33,33.48l-2-.37-6-.78Z" transform="translate(-0.44 -0.23)"/><path class="a" d="M50.94,65.65a192.11,192.11,0,0,1,28.25-25.1A168.94,168.94,0,0,0,50.64,65.81,189.84,189.84,0,0,0,30,93.32c1.73-2.59,4-4.83,5.89-7.33A102.47,102.47,0,0,1,50.94,65.65Z" transform="translate(-0.44 -0.23)"/><path class="a" d="M304.63,55.08c-31.88-9-63.39-17.75-94.34-22a232.43,232.43,0,0,0-46.43-4.24c-15.27.39-30.27,2.63-44.06,7.54a125.5,125.5,0,0,0-19.75,8.85A138.56,138.56,0,0,0,82.5,57.1a157.44,157.44,0,0,0-28,29.71c-3.41,4.78-7.07,10-10.73,15.83L41,107.05l-.71,1.12c-.21.36-.35.67-.53,1-.34.66-.69,1.32-1,2a61,61,0,0,0-3.52,9c-4,13.14-5.12,29.24-5,45.27.55,32.27,6.38,65,13.58,87.87-.69-5.07-1.35-9.92-2-14.59q1.17,5.1,2.44,9.88c.44,1.59.87,3.15,1.29,4.69.22.76.44,1.5.66,2.25a4.31,4.31,0,0,0,.39.59l.94,3.63.24.85.13.43a2.4,2.4,0,0,0,.46,0l1.9-.13,1.83-.12.89-.07.43,0,1.73,0,15-.23,60.07-.76c40.11-.41,80.44-.64,121.57-.64,12.21,0,21.35-1.28,33.55-1.28l36.59-.24c.05-.1-.11-.2-.44-.29,25.11-.27,50-.61,75.14-1.07l37.92-.76,9.57-.22,4.8-.12,2.4-.05c.3,0,.11,0,.17,0h0l0,0a.38.38,0,0,0,0-.51c-.07-.12-.13-.11-.15-.12l5.26-17.06c3.48-11.44,6.85-22.89,9.91-34.36,2.28-8.61,3.91-8.18,5.78-13.83,3.9-11.24,7.13-21.09,10-31.31a225.23,225.23,0,0,0,6.81-33.12l1.27.11c.17-3.66.32-6.92.45-9.6a43.21,43.21,0,0,1,2.55,10.91c.53,4.13.77,8.27,1.15,11s.83,4,1.74,2.58,2.33-5.71,3.88-14h0c0,1.89-.05,3.58-.07,5.2,0,.2,0,.37-.06.56,0,0,0,0,.05,0a133,133,0,0,0,.38,18.12c.89-5.18,1.67-10.37,2.29-15.57.48,1,1,1.77,1.65,1.3.05.47.1.91.16,1.42l-.59,4.28a7,7,0,0,0,.74,1.84c-.12,14-4,35.82-1.4,32,1.58-3,3-13.2,4.42-24.78.28-.67.56-1.44.81-2.24-2.19,15.18,3,.51,1.78,9.67-2.25,12.12-4.52,24.2-7.45,36.13-6,24.26-12.3,46.35-18.83,68.27l-2.88,9.43q-1.56,5-3.14,10c0,9.64-9.63,6.11-16.2,7l-19.5.36-18,.45-6.42.15c-23.64.53-46,.62-69.11.29,1.48-.3,3-.57,4.61-.83-18.62-.28-37.28-.37-55.93.28-45.72,1.71-91.43,3.41-140.2,3.84-25.55.17-50.63.48-75.8.93L39,294.44c-4.68.07-9.29,0-14,0H20.6a1.88,1.88,0,0,1-.42,0l-.1-.43-.39-1.69-1.55-6.78c-1-4.53-2.07-9.11-3-13.8-.85-4.34-1.71-8.68-2.57-13.05l2.18,10.46c.82,3.83,1.66,7.62,2.55,11.35l2.64,11.09.33,1.38.17.69.08.35c0,.1.22,0,.33,0l2.93,0L29.6,294c7.71,0,15.54-.25,23.24-.37l16.39-.32c9.77,0,19.49.06,28.93,0-9.79-.14-19.4-.11-28.93,0l-33.38-.14L26,293l-2.45,0H21.45c-.05-.06-.05-.19-.08-.28l-1-4.75c-1.36-6.31-2.71-12.56-3.94-18.83l-5.55-28.32c-1.68-8.28-3.33-16.15-5.09-23.43,0-3.25.47-3.29.17-6.38-2-21.87-2.23-43.86-2.27-63.51-.45,0,.58-9.9-.62-6.71A132.61,132.61,0,0,1,10,108.4a85.2,85.2,0,0,1,3.63-8.62c.68-1.43,1.58-2.89,2.37-4.32l1.24-2.13c.4-.66.72-1.12,1.09-1.69l4.19-6.44c1.39-2.11,2.87-4.15,4.24-6.18,2.38-3.53,5-7,7.38-10.52l3.82-5.27c1.25-1.78,2.53-3.56,3.89-5.29A186.33,186.33,0,0,1,61.46,38.79,160.33,160.33,0,0,1,138.12,3C157-.23,176.07-.39,194.63,1.24a403.53,403.53,0,0,1,54.72,9.24c17.83,4.26,37.57,10.4,54.55,15.81-25.44-6.56-52.16-13.78-80.74-18.7A255.38,255.38,0,0,0,182,1.66a147.24,147.24,0,0,0-38.33,2.49l-4.07.78-4.06.93c-2.7.58-5.38,1.32-8.06,2.08a165.44,165.44,0,0,1,24.64-4.12,206.64,206.64,0,0,1,24.4-.92,312.75,312.75,0,0,1,46.64,4.69c16.22,3.56,32.19,8.21,47.61,12.79l-1-.19c-12.26-3-24.8-6-37.68-8.45C208.21,5.9,183.61,2.43,162,4.44c-2.69.29-5.34.53-7.89.94C148.74,6.12,143.37,7,138,8.19c20.07-3.58,40.14-3.47,59.24-1.61,11.88,1.15,23.51,3,34.85,5.16,7,1.74,14.09,3.61,21,5.61l-2.28-.27c-6.23-1.34-24.6-.54-15.71,2.92,23.53,5.56,50.87,13.75,72.29,20.08L334,47.87l7.7,2.24,2.05.63a3.1,3.1,0,0,1,.7.26c1.18,1.27-17.38-3.35-36.06-8.51S270.81,32.27,272.2,33l12.88,4.47c-4.21-1-8.34-1.85-12.18-2.59C264,32.56,252.21,28.76,246,28c-10.79-1.54-22.17-3.86-34.09-5.72s-24.36-3.38-36.92-3c-15.68.46-34.55,3.3-51.83,10,.2.76-8.67,3.12-5.49,3A113.39,113.39,0,0,0,94.16,42.86a77.62,77.62,0,0,0-8.89,6.22,36.12,36.12,0,0,0-5.34,5.5l-.92.81c-.94.73-2.2,1.88-3.5,3.14A129.4,129.4,0,0,0,49.77,85.74c-1.69,2.36-3.36,4.7-4.89,7.16s-3.15,4.84-4.6,7.4c-.74,1.27-1.48,2.54-2.24,3.82l-1.13,1.93L36,107.89a56.58,56.58,0,0,0-3.16,7.83,121,121,0,0,0-5.68,24.92A179.22,179.22,0,0,1,31.37,121c.39-1.85,1-3.52,1.49-5.28a63.3,63.3,0,0,1,7.29-13.83l2.23-3.49L44.71,95c1.56-2.26,3.08-4.53,4.74-6.68A186,186,0,0,1,70.6,63.9c1.18-1.3,3-3.53,4.91-5.37l3.75-2.8c.19-.37.42-.75.67-1.15a127.27,127.27,0,0,1,27-17.19,158,158,0,0,1,28.29-10.11c16.53-3.85,34.34-4.25,51.84-2.45s34.86,5.63,51.55,10a334,334,0,0,0-50.1-7.17c20.64,1.51,40,5.26,58.59,9.46l8.44,2.37q8.81,2.52,17.56,5.2c-5.39-1.85-10.77-3.59-16.14-5.27,11.09,2.67,22,5.51,32.73,8.31,29.47,8.26,59.14,17.35,89.22,24.48s60.62,12.3,91,12.47c-1.19.52-2.56,1-4.09,1.52-14.74,0-29.47-1.42-43.48-3.15S395.07,79,383,77.25c16.73,4,28.54,5.6,44.91,7.8,0,.24.07.61-1.32.57,10.56,1,22.9,1.72,34.87,1.91-3.85,1-8.23,1.9-12.63,2.67-6.19.44-15.37-.43-24.54-1.37a451.55,451.55,0,0,1-57.31-11.47C348.33,72.53,330,67.05,311.26,61.62c-33-10.64-65.84-21.75-98.93-28.14,16.52,2.62,32.3,6.15,47.58,10S290,51.23,304.63,55.08ZM487.14,187.59l-1.69,9.34.64-1.32A35.51,35.51,0,0,0,487.14,187.59Zm-19.43,67.89c6.87-19.6,13.6-46.18,19-71.85-.08-.17-.17-.29-.26-.31C481,204.61,474.7,231.11,467.71,255.48Zm-56,5.84.5.14a1.29,1.29,0,0,1,0-.19ZM43.51,274.93c2.43-.27,4.81-.5,7.19-.71l1.77-.15.89-.07,1.21-.07,5-.25c6.76-.31,13.81-.54,21-.73l45-1c9.15,0,18.27-1.71,30.47-1.71,15.25-.42,24.39-1.28,36.59-1.7l-9.16-.86c21.35.43,33.55-2.13,54.88-1.28,0-.42,3-1.28,6.09-1.28,15.24-.43,30.5.43,42.69-.43,15.24-.42,30.47-.42,42.67-1.28,3.06,0,9.14-1.28,15.25-1.7l22.32-.4-.92-.35c-6.05,0-12.2,0-18.34.32-18.31.85-39.64,1.71-57.92,2.13-45.75.86-88.42,2.57-131.09,4.27-9.14.43-18.3,1.28-27.43,1.71-13.72.85-29,1.17-43.07,1.65-7,.24-13.81.52-20,.93-3.07.2-6,.44-8.71.72l-3.92.45-1.84.25-.86.13-.61.14C50.55,274.07,46.21,274.07,43.51,274.93ZM14.68,259.44c.56,2.61,1.13,5.22,1.7,7.86s1.25,5.55,1.87,8.35c1.32,5.51,2.6,11,4,16.39l17.37-.22,16.3-.34c16.71-.39,33.2-.51,48.38-.33,24.41,0,94.49-2.56,82.29-7.68-15.09,4.65-65.49,4.69-109.46,4.8l-33,.17-16.82.1-1.95,0c-.44.15-.31-.4-.44-.64l-.21-.89c-.28-1.2-.56-2.36-.82-3.5-.55-2.27-1.06-4.44-1.55-6.47-1-4.08-1.87-7.71-2.67-10.74-.39-1.52-.77-2.89-1.14-4.1-.19-.6-.36-1.16-.52-1.68s-.3-.79-.45-1.14C16.42,256.81,15.44,256.59,14.68,259.44ZM94,20.19A195.91,195.91,0,0,0,57.28,45.67a171.32,171.32,0,0,1,17.3-13.93A164.3,164.3,0,0,1,94,20.19ZM18.82,133.27l.4-3.78c.17-1.26.4-2.52.6-3.78.36-2.54,1-5.06,1.56-7.6s1.47-5,2.29-7.58A60.42,60.42,0,0,1,27,103.11c1.27-2.54,2.68-4.65,4.06-6.86s2.77-4.42,4.29-6.55,2.95-4.33,4.52-6.44L44.65,77c13.09-16.51,29.05-31.22,47-41.89A121,121,0,0,1,114,24.83,147.58,147.58,0,0,1,138.17,19c16.26-2.63,32.16-2.66,46.48-3l.11-1.28-3.2.2c-11.14-1.05-20.28-1.72-29.88-1.39l1.66-.24-2.88.28a98.58,98.58,0,0,0-20.58,3c-3.44.85-6.88,2-10.33,3.12A146.76,146.76,0,0,0,66.13,49.46,171.3,171.3,0,0,0,45.81,70.64,184.73,184.73,0,0,0,30,93.32l-2.11,3.49C27.22,98,26.53,99,25.86,100.4s-1.31,2.58-1.95,3.87-1,2.61-1.53,3.9l-.73,1.93L21.09,112,20,115.9c-.53,2.59-1.15,5.13-1.53,7.69a197.72,197.72,0,0,0-2,31.13C16.68,148.58,18.14,139.43,18.82,133.27Z" transform="translate(-0.44 -0.23)"/><path class="a" d="M251.1,37.67c12.84,3,25.7,6.46,38.61,10.09l29.9,7.72c23.64,6.25,49,13.66,75.08,19.19s53,9.12,78.59,8.12c1.49-1.29,1.62-2.57-.22-3.85-27.39-.23-54.87-4.08-82.18-10.07S336.44,54.71,309.4,45.7l-1.32-.27c-12-2.48-27.42-7-43.76-11.42s-33.66-8.61-49.1-10.53c-15.46-1.72-31-2.89-46.55-2.33s-31,2.94-45.53,8.06a161.88,161.88,0,0,1,32.39-5.34,205.4,205.4,0,0,1,32.36.71C209.31,26.67,230.27,31.48,251.1,37.67Z" transform="translate(-0.44 -0.23)"/><path class="a" d="M38.92,205.65c-1.22-11.44-2.11-22.93-2.39-34.36-.46-15.83.11-30.71,2.74-43.61,1.39-6.41,3.21-12.09,5.9-16.61C48.94,105,52.77,98.88,57,93.14l-2.45,3.07L52.23,99.4c-1.57,2.13-3.15,4.23-4.62,6.46l-2.24,3.3-1.12,1.64c-.32.5-.5.89-.77,1.34A30,30,0,0,0,42,114.79l-1.35,2.92c-3.32,8.3-5.38,18.34-6.41,28.77a168.31,168.31,0,0,0,.54,30.23C35.76,186.44,37.26,195.91,38.92,205.65Z" transform="translate(-0.44 -0.23)"/><path class="a" d="M71.62,75.28A182.07,182.07,0,0,0,57,93.14,179.3,179.3,0,0,1,72.39,76,140.09,140.09,0,0,1,89.63,61.33a127.62,127.62,0,0,1,19.11-11.47,125.34,125.34,0,0,1,20.84-7.76c23.58-7,49.63-6.75,75.5-3.13s52,10.42,78,17.39c5.91,1.61,11.78,3.28,17.6,5-23.94-7.74-47.75-15.5-71.64-21.23s-47.89-9.42-71.11-8.18a140,140,0,0,0-33.58,5.82A124.11,124.11,0,0,0,94.57,51.59C76.35,63.33,61.93,79.31,50.67,96.25l-2.59,4C59.38,84.5,72.44,70.4,87.52,59.42a127.17,127.17,0,0,1,50.55-22.19,138.69,138.69,0,0,0-18.73,5.55,131.94,131.94,0,0,0-17.46,8.35,140.8,140.8,0,0,0-16,10.94A151.07,151.07,0,0,0,71.62,75.28Z" transform="translate(-0.44 -0.23)"/><path class="a" d="M238.63,34.86l8.49,2.29,9.86,2.3-5.88-1.78C246.93,36.7,242.77,35.72,238.63,34.86Z" transform="translate(-0.44 -0.23)"/><path class="a" d="M151.68,13.57l-1.22,0a165.3,165.3,0,0,0-30.91,6.13,171.83,171.83,0,0,0-20.7,8.81,171.62,171.62,0,0,0-19.66,12A152.17,152.17,0,0,1,116,22,188.4,188.4,0,0,1,151.68,13.57Z" transform="translate(-0.44 -0.23)"/><path class="a" d="M61.4,37.72c-2.82,2.07-8,6.61-10.57,8.93l-4,4.83C49.2,49.32,51.46,47,54,45,56.4,42.54,58.78,40,61.4,37.72Z" transform="translate(-0.44 -0.23)"/><path class="a" d="M5.77,217.36C4,203.6,2.59,189.93,2,176.19a258.24,258.24,0,0,1,1.13-41.68,138.72,138.72,0,0,1,4.26-21.66,90.66,90.66,0,0,1,4.08-11.21l1.25-2.82c.48-.95,1-1.91,1.55-2.86l1.6-2.84.4-.7.35-.55.69-1.06A244.6,244.6,0,0,1,41.82,57.94c1.68-2.13,3.25-4.36,5-6.46A201.82,201.82,0,0,0,28.16,72.12C25.28,75.68,22.69,79.38,20,83L16.31,88.6l-1.87,2.84-2.18,3.78c-5.54,10.14-8,19.84-9.68,29A157.57,157.57,0,0,0,.45,150.49c-.14,6.64,1,16.36,1,22.75a369.19,369.19,0,0,0,3.69,43.82c2,14.16,4.53,28,7.41,41.65C10,245.59,7.79,232.26,5.92,218.5Z" transform="translate(-0.44 -0.23)"/></svg>